{"title":"Teen.Wolf.S05E11.The.Last.Chimera.1080p.WEB-DL.DD5.1.H264-Oosh","uid":13165405,"size":1657737303,"categoryP":"video","categoryS":"hd___tv_shows","magnet":"?xt=urn:btih:c7a9cdb8a84efe6b8119cc5f1cc3527725bed858&amp;dn=Teen.Wolf.S05E11.The.Last.Chimera.1080p.WEB-DL.DD5.1.H264-Oosh&amp;tr=udp%3A%2F%2Ftracker.leechers-paradise.org%3A6969&amp;tr=udp%3A%2F%2Fzer0day.ch%3A1337&amp;tr=udp%3A%2F%2Fopen.demonii.com%3A1337&amp;tr=udp%3A%2F%2Ftracker.coppersurfer.tk%3A6969&amp;tr=udp%3A%2F%2Fexodus.desync.com%3A6969","seeders":1,"leechers":0,"uploader":null,"files":3,"time":1452200375,"description":"Video\r\nID                                       : 1\r\nFormat                                   : AVC\r\nFormat/Info                              : Advanced Video Codec\r\nFormat profile                           :   \r\nFormat settings, CABAC                   : Yes\r\nFormat settings, ReFrames                : 4 frames\r\nCodec ID                                 : V_MPEG4/ISO/AVC\r\nDuration                                 : 41mn 54s\r\nBit rate                                 : 4 888 Kbps\r\nWidth                                    : 1 916 pixels\r\nHeight                                   : 1 076 pixels\r\nDisplay aspect ratio                     : 16:9\r\nFrame rate mode                          : Constant\r\nFrame rate                               : 23.976 (23976/1000) fps\r\nColor space                              : YUV\r\nChroma subsampling                       : 4:2:0\r\nBit depth                                : 8 bits\r\nScan type                                : Progressive\r\nBits/(Pixel*Frame)                       : 0.099\r\nStream size                              : 1.43 GiB (93%)\r\nLanguage                                 : English\r\nDefault                                  : Yes\r\nForced                                   : No\r\nColor range                              : Limited\r\nColor primaries                          : BT.709\r\nTransfer characteristics                 : BT.709\r\nMatrix coefficients                      : BT.709\r\n\r\nAudio\r\nID                                       : 2\r\nFormat                                   : AC-3\r\nFormat/Info                              : Audio Coding 3\r\nMode extension                           : CM (complete main)\r\nFormat settings, Endianness              : Big\r\nCodec ID                                 : A_AC3\r\nDuration                                 : 41mn 54s\r\nBit rate mode                            : Constant\r\nBit rate                                 : 384 Kbps\r\nChannel(s)                               : 6 channels\r\nChannel positions                        : Front: L C R, Side: L R, LFE\r\nSampling rate                            : 48.0 KHz\r\nFrame rate                               : 31.250 fps (1536 spf)\r\nCompression mode                         : Lossy\r\nStream size                              : 115 MiB (7%)\r\nLanguage                                 : English\r\nDefault                                  : Yes\r\nForced                                   : No\r\n\r\nText\r\nID                                       : 3\r\nFormat                                   : UTF-8\r\nCodec ID                                 : S_TEXT/UTF8\r\nCodec ID/Info                            : UTF-8 Plain Text\r\nDuration                                 : 41mn 17s\r\nBit rate                                 : 82 bps\r\nCount of elements                        : 610\r\nStream size                              : 25.0 KiB (0%)\r\nLanguage                                 : English\r\nDefault                                  : No\r\nForced                                   : No","torrent":{"xt":"urn:btih:c7a9cdb8a84efe6b8119cc5f1cc3527725bed858","amp;dn":"Teen.Wolf.S05E11.The.Last.Chimera.1080p.WEB-DL.DD5.1.H264-Oosh","amp;tr":["udp%3A%2F%2Ftracker.leechers-paradise.org%3A6969","udp%3A%2F%2Fzer0day.ch%3A1337","udp%3A%2F%2Fopen.demonii.com%3A1337","udp%3A%2F%2Ftracker.coppersurfer.tk%3A6969","udp%3A%2F%2Fexodus.desync.com%3A6969"],"infoHash":"c7a9cdb8a84efe6b8119cc5f1cc3527725bed858","infoHashBuffer":{"type":"Buffer","data":[199,169,205,184,168,78,254,107,129,25,204,95,28,195,82,119,37,190,216,88]},"announce":[],"urlList":[]}}